<?xml version="1.0" encoding="UTF-8" standalone="no"?>
<svg width="137px" height="37px" viewBox="0 0 137 37" version="1.1" xmlns="http://www.w3.org/2000/svg" xmlns:xlink="http://www.w3.org/1999/xlink" xmlns:sketch="http://www.bohemiancoding.com/sketch/ns">
    <!-- Generator: Sketch 3.4.2 (15857) - http://www.bohemiancoding.com/sketch -->
    <title>Easy + ship</title>
    <desc>Created with Sketch.</desc>
    <defs></defs>
    <g id="Page-1" stroke="none" stroke-width="1" fill="none" fill-rule="evenodd" sketch:type="MSPage">
        <g id="Easy-+-ship" sketch:type="MSLayerGroup">
            <path d="M15.3389862,27 L0.538204908,27 L0.538204908,1.30078125 L15.3389862,1.30078125 L15.3389862,5.765625 L5.98742366,5.765625 L5.98742366,11.4082031 L14.6885955,11.4082031 L14.6885955,15.8730469 L5.98742366,15.8730469 L5.98742366,22.5 L15.3389862,22.5 L15.3389862,27 Z M31.0371689,27 L30.0000595,24.328125 L29.8594345,24.328125 C28.9570862,25.4648494 28.0283846,26.2529275 27.0733017,26.6923828 C26.1182188,27.1318381 24.873114,27.3515625 23.3379501,27.3515625 C21.4512219,27.3515625 19.9658852,26.8125054 18.8818954,25.734375 C17.7979056,24.6562446 17.2559189,23.1211037 17.2559189,21.1289062 C17.2559189,19.0429583 17.9854038,17.5048878 19.4443954,16.5146484 C20.9033871,15.5244091 23.1035604,14.976563 26.0449814,14.8710938 L29.4551376,14.765625 L29.4551376,13.9042969 C29.4551376,11.9120994 28.4356166,10.9160156 26.3965439,10.9160156 C24.8262235,10.9160156 22.9805388,11.3906203 20.8594345,12.3398438 L19.0840439,8.71875 C21.3457739,7.53515033 23.8535613,6.94335938 26.6074814,6.94335938 C29.2442133,6.94335938 31.2656775,7.51757238 32.6719345,8.66601562 C34.0781915,9.81445887 34.7813095,11.5605352 34.7813095,13.9042969 L34.7813095,27 L31.0371689,27 Z M29.4551376,17.8945312 L27.3809189,17.9648438 C25.8223173,18.011719 24.6621727,18.2929662 23.9004501,18.8085938 C23.1387276,19.3242213 22.757872,20.1093697 22.757872,21.1640625 C22.757872,22.6757888 23.6250508,23.4316406 25.3594345,23.4316406 C26.6016282,23.4316406 27.5947823,23.0742223 28.3389267,22.359375 C29.083071,21.6445277 29.4551376,20.6953184 29.4551376,19.5117188 L29.4551376,17.8945312 Z M52.2900391,21.1640625 C52.2900391,23.1796976 51.5898508,24.7148385 50.1894531,25.7695312 C48.7890555,26.824224 46.6943499,27.3515625 43.9052734,27.3515625 C42.4755788,27.3515625 41.256841,27.2548838 40.2490234,27.0615234 C39.2412059,26.8681631 38.297856,26.5839863 37.4189453,26.2089844 L37.4189453,21.7792969 C38.415044,22.2480492 39.5371031,22.6406234 40.7851562,22.9570312 C42.0332094,23.2734391 43.1318312,23.4316406 44.0810547,23.4316406 C46.0263769,23.4316406 46.9990234,22.8691463 46.9990234,21.7441406 C46.9990234,21.3222635 46.8701185,20.9794935 46.6123047,20.7158203 C46.3544909,20.4521471 45.9091829,20.153322 45.2763672,19.8193359 C44.6435515,19.4853499 43.79981,19.0957054 42.7451172,18.6503906 C41.2333909,18.017575 40.1230504,17.4316433 39.4140625,16.8925781 C38.7050746,16.3535129 38.1894547,15.735355 37.8671875,15.0380859 C37.5449203,14.3408168 37.3837891,13.482427 37.3837891,12.4628906 C37.3837891,10.7167881 38.0605401,9.36621571 39.4140625,8.41113281 C40.7675849,7.45604991 42.686511,6.97851562 45.1708984,6.97851562 C47.5380978,6.97851562 49.8408091,7.49413547 52.0791016,8.52539062 L50.4619141,12.3925781 C49.4775341,11.970701 48.5576215,11.6250013 47.7021484,11.3554688 C46.8466754,11.0859362 45.9736373,10.9511719 45.0830078,10.9511719 C43.5009687,10.9511719 42.7099609,11.378902 42.7099609,12.234375 C42.7099609,12.7148462 42.9648412,13.1308576 43.4746094,13.4824219 C43.9843775,13.8339861 45.1005773,14.3554653 46.8232422,15.046875 C48.3584061,15.6679719 49.4833949,16.2480442 50.1982422,16.7871094 C50.9130895,17.3261746 51.440428,17.9472621 51.7802734,18.6503906 C52.1201189,19.3535191 52.2900391,20.1914014 52.2900391,21.1640625 L52.2900391,21.1640625 Z M51.9393936,7.34765625 L57.8104874,7.34765625 L61.5194718,18.4042969 C61.8358796,19.3652392 62.0526743,20.5019466 62.1698624,21.8144531 L62.2753311,21.8144531 C62.404238,20.6074158 62.6561886,19.4707085 63.0311905,18.4042969 L66.6698624,7.34765625 L72.4179093,7.34765625 L64.1034561,29.5136719 C63.3417336,31.5644634 62.2548304,33.0996043 60.842714,34.1191406 C59.4305975,35.138677 57.7811999,35.6484375 55.8944718,35.6484375 C54.9686859,35.6484375 54.0604918,35.5488291 53.1698624,35.3496094 L53.1698624,31.0957031 C53.8143969,31.2480476 54.5175148,31.3242188 55.2792374,31.3242188 C56.2284609,31.3242188 57.0575542,31.0341826 57.7665421,30.4541016 C58.47553,29.8740205 59.0292354,28.9980527 59.4276749,27.8261719 L59.7440811,26.859375 L51.9393936,7.34765625 Z" id="Easy" fill="#000000" sketch:type="MSShapeGroup"></path>
            <path d="M88.5253906,21.1621094 C88.5253906,23.4238394 87.7050863,25.1874937 86.0644531,26.453125 C84.4238199,27.7187563 82.1972797,28.3515625 79.3847656,28.3515625 C76.3378754,28.3515625 73.9941488,27.9589883 72.3535156,27.1738281 L72.3535156,24.2910156 C73.4082084,24.7363304 74.5566344,25.0878893 75.7988281,25.3457031 C77.0410218,25.6035169 78.2714783,25.7324219 79.4902344,25.7324219 C81.4824318,25.7324219 82.9824168,25.354496 83.9902344,24.5986328 C84.9980519,23.8427697 85.5019531,22.7910224 85.5019531,21.4433594 C85.5019531,20.5527299 85.323244,19.823245 84.9658203,19.2548828 C84.6083967,18.6865206 84.0107464,18.1621118 83.1728516,17.6816406 C82.3349567,17.2011695 81.0605554,16.656253 79.3496094,16.046875 C76.9589724,15.191402 75.2509817,14.1777402 74.2255859,13.0058594 C73.2001902,11.8339785 72.6875,10.3046969 72.6875,8.41796875 C72.6875,6.4374901 73.4316332,4.86133398 74.9199219,3.68945312 C76.4082106,2.51757227 78.3769409,1.93164062 80.8261719,1.93164062 C83.3808721,1.93164062 85.730458,2.40038594 87.875,3.33789062 L86.9433594,5.93945312 C84.822255,5.04882367 82.7597756,4.60351562 80.7558594,4.60351562 C79.1738202,4.60351562 77.9375045,4.94335598 77.046875,5.62304688 C76.1562455,6.30273777 75.7109375,7.24608771 75.7109375,8.453125 C75.7109375,9.34375445 75.8749984,10.0732393 76.203125,10.6416016 C76.5312516,11.2099638 77.084957,11.7314429 77.8642578,12.2060547 C78.6435586,12.6806664 79.8359295,13.2050753 81.4414062,13.7792969 C84.1367322,14.7402392 85.9912059,15.7714789 87.0048828,16.8730469 C88.0185598,17.9746149 88.5253906,19.4042881 88.5253906,21.1621094 L88.5253906,21.1621094 Z M104.775391,28 L104.775391,15.5371094 C104.775391,13.966789 104.417972,12.7949257 103.703125,12.0214844 C102.988278,11.248043 101.869148,10.8613281 100.345703,10.8613281 C98.3183492,10.8613281 96.8388718,11.4121039 95.9072266,12.5136719 C94.9755813,13.6152399 94.5097656,15.4199093 94.5097656,17.9277344 L94.5097656,28 L91.5917969,28 L91.5917969,0.6484375 L94.5097656,0.6484375 L94.5097656,8.92773438 C94.5097656,9.92383311 94.4628911,10.7499967 94.3691406,11.40625 L94.5449219,11.40625 C95.1191435,10.4804641 95.9365181,9.75097923 96.9970703,9.21777344 C98.0576225,8.68456765 99.2675713,8.41796875 100.626953,8.41796875 C102.982434,8.41796875 104.749018,8.97753347 105.926758,10.0966797 C107.104498,11.2158259 107.693359,12.9941284 107.693359,15.4316406 L107.693359,28 L104.775391,28 Z M114.855469,28 L111.9375,28 L111.9375,8.734375 L114.855469,8.734375 L114.855469,28 Z M111.691406,3.51367188 C111.691406,2.84569979 111.855467,2.35644687 112.183594,2.04589844 C112.51172,1.73535001 112.921873,1.58007812 113.414062,1.58007812 C113.882815,1.58007812 114.287108,1.73827967 114.626953,2.0546875 C114.966799,2.37109533 115.136719,2.85741859 115.136719,3.51367188 C115.136719,4.16992516 114.966799,4.65917808 114.626953,4.98144531 C114.287108,5.30371255 113.882815,5.46484375 113.414062,5.46484375 C112.921873,5.46484375 112.51172,5.30371255 112.183594,4.98144531 C111.855467,4.65917808 111.691406,4.16992516 111.691406,3.51367188 L111.691406,3.51367188 Z M128.257812,28.3515625 C127.0039,28.3515625 125.858404,28.1201195 124.821289,27.6572266 C123.784175,27.1943336 122.914066,26.4824267 122.210938,25.5214844 L122,25.5214844 C122.140626,26.64649 122.210938,27.7128856 122.210938,28.7207031 L122.210938,36.6484375 L119.292969,36.6484375 L119.292969,8.734375 L121.666016,8.734375 L122.070312,11.3710938 L122.210938,11.3710938 C122.960941,10.316401 123.833979,9.55468984 124.830078,9.0859375 C125.826177,8.61718516 126.968744,8.3828125 128.257812,8.3828125 C130.812513,8.3828125 132.784173,9.25585064 134.172852,11.0019531 C135.56153,12.7480556 136.255859,15.1972499 136.255859,18.3496094 C136.255859,21.5136877 135.549812,23.9716709 134.137695,25.7236328 C132.725579,27.4755947 130.765638,28.3515625 128.257812,28.3515625 L128.257812,28.3515625 Z M127.835938,10.8613281 C125.867178,10.8613281 124.443364,11.4062446 123.564453,12.4960938 C122.685542,13.5859429 122.234375,15.3203006 122.210938,17.6992188 L122.210938,18.3496094 C122.210938,21.0566542 122.662105,22.9931582 123.564453,24.1591797 C124.466801,25.3252011 125.914053,25.9082031 127.90625,25.9082031 C129.570321,25.9082031 130.874019,25.2343817 131.817383,23.8867188 C132.760747,22.5390558 133.232422,20.6816525 133.232422,18.3144531 C133.232422,15.9120974 132.760747,14.0693424 131.817383,12.7861328 C130.874019,11.5029233 129.546884,10.8613281 127.835938,10.8613281 L127.835938,10.8613281 Z" id="ship" fill="#0D549D" sketch:type="MSShapeGroup"></path>
        </g>
    </g>
</svg>