<?xml version="1.0" encoding="UTF-8" standalone="no"?>
<!-- Generator: Adobe Illustrator 16.0.0, SVG Export Plug-In . SVG Version: 6.00 Build 0)  -->

<svg
   xmlns:dc="http://purl.org/dc/elements/1.1/"
   xmlns:cc="http://creativecommons.org/ns#"
   xmlns:rdf="http://www.w3.org/1999/02/22-rdf-syntax-ns#"
   xmlns:svg="http://www.w3.org/2000/svg"
   xmlns="http://www.w3.org/2000/svg"
   xmlns:sodipodi="http://sodipodi.sourceforge.net/DTD/sodipodi-0.dtd"
   xmlns:inkscape="http://www.inkscape.org/namespaces/inkscape"
   version="1.1"
   id="Capa_1"
   x="0px"
   y="0px"
   width="586.5px"
   height="586.5px"
   viewBox="0 0 586.5 586.5"
   style="enable-background:new 0 0 586.5 586.5;"
   xml:space="preserve"
   inkscape:version="0.91 r"
   sodipodi:docname="customs_blue.svg"><metadata
     id="metadata50"><rdf:RDF><cc:Work
         rdf:about=""><dc:format>image/svg+xml</dc:format><dc:type
           rdf:resource="http://purl.org/dc/dcmitype/StillImage" /><dc:title></dc:title></cc:Work></rdf:RDF></metadata><defs
     id="defs48" /><sodipodi:namedview
     pagecolor="#ffffff"
     bordercolor="#666666"
     borderopacity="1"
     objecttolerance="10"
     gridtolerance="10"
     guidetolerance="10"
     inkscape:pageopacity="0"
     inkscape:pageshadow="2"
     inkscape:window-width="1366"
     inkscape:window-height="716"
     id="namedview46"
     showgrid="false"
     inkscape:zoom="0.40238704"
     inkscape:cx="-70.827331"
     inkscape:cy="293.25"
     inkscape:window-x="0"
     inkscape:window-y="0"
     inkscape:window-maximized="1"
     inkscape:current-layer="Layer_1_63_" /><g
     id="g3"><g
       id="Layer_1_63_"><g
         id="g6"
         style="fill:#2196f3;fill-opacity:1"><path
           d="M186.769,76.5h215.475V14.025c0-7.65-6.375-14.025-14.025-14.025h-216.75c-5.1,0-10.2,2.55-12.75,7.65     c-2.55,5.1-2.55,12.75,0,17.85L186.769,76.5z"
           id="path8"
           style="fill:#2196f3;fill-opacity:1" /><path
           d="M171.469,178.5h24.225c1.275,56.1,47.175,100.725,103.274,100.725c56.101,0,102-44.625,103.275-100.725l0,0v-63.75     H186.769l-26.775,45.9c-2.55,3.825-2.55,6.375,0,11.475C162.543,175.95,166.369,178.5,171.469,178.5z"
           id="path10"
           style="fill:#2196f3;fill-opacity:1" /><path
           d="M407.343,320.025L209.719,586.5h253.725c7.649,0,14.024-6.375,14.024-14.025v-165.75     C478.744,364.65,448.144,328.95,407.343,320.025z"
           id="path12"
           style="fill:#2196f3;fill-opacity:1" /><path
           d="M196.969,318.75c-48.45,0-87.975,39.525-87.975,87.975V571.2c0,7.649,6.375,14.024,14.025,14.024h24.225l198.9-267.75     H196.969V318.75z"
           id="path14"
           style="fill:#2196f3;fill-opacity:1" /></g></g></g><g
     id="g16" /><g
     id="g18" /><g
     id="g20" /><g
     id="g22" /><g
     id="g24" /><g
     id="g26" /><g
     id="g28" /><g
     id="g30" /><g
     id="g32" /><g
     id="g34" /><g
     id="g36" /><g
     id="g38" /><g
     id="g40" /><g
     id="g42" /><g
     id="g44" /></svg>