<?xml version="1.0" encoding="UTF-8" standalone="no"?>
<!-- Generator: Adobe Illustrator 16.0.0, SVG Export Plug-In . SVG Version: 6.00 Build 0)  -->

<svg
   xmlns:dc="http://purl.org/dc/elements/1.1/"
   xmlns:cc="http://creativecommons.org/ns#"
   xmlns:rdf="http://www.w3.org/1999/02/22-rdf-syntax-ns#"
   xmlns:svg="http://www.w3.org/2000/svg"
   xmlns="http://www.w3.org/2000/svg"
   xmlns:sodipodi="http://sodipodi.sourceforge.net/DTD/sodipodi-0.dtd"
   xmlns:inkscape="http://www.inkscape.org/namespaces/inkscape"
   version="1.1"
   id="Capa_1"
   x="0px"
   y="0px"
   width="612px"
   height="612px"
   viewBox="0 0 612 612"
   style="enable-background:new 0 0 612 612;"
   xml:space="preserve"
   inkscape:version="0.91 r"
   sodipodi:docname="package8.svg"><metadata
     id="metadata41"><rdf:RDF><cc:Work
         rdf:about=""><dc:format>image/svg+xml</dc:format><dc:type
           rdf:resource="http://purl.org/dc/dcmitype/StillImage" /></cc:Work></rdf:RDF></metadata><defs
     id="defs39" /><sodipodi:namedview
     pagecolor="#ffffff"
     bordercolor="#666666"
     borderopacity="1"
     objecttolerance="10"
     gridtolerance="10"
     guidetolerance="10"
     inkscape:pageopacity="0"
     inkscape:pageshadow="2"
     inkscape:window-width="718"
     inkscape:window-height="480"
     id="namedview37"
     showgrid="false"
     inkscape:zoom="0.38562092"
     inkscape:cx="306"
     inkscape:cy="306"
     inkscape:window-x="0"
     inkscape:window-y="0"
     inkscape:window-maximized="0"
     inkscape:current-layer="g3" /><g
     id="g3"><path
       d="M289.052,191.691l-36.224,87.974c-1.228,2.983-4.017,5.033-7.23,5.315L60.311,301.262   c-4.546,0.399-7.996,4.266-7.877,8.826l3.768,145.442c0.104,3.999,2.941,7.403,6.856,8.228l218.13,45.882   c5.333,1.122,10.753,1.677,16.173,1.665l0.004-43.135V193.336C297.363,181.33,293.623,180.59,289.052,191.691z M263.687,462.923   l-81.886-13.187v-42.921h81.886V462.923z M227.882,264.073L9.518,286.138c-6.671,0.674-11.532-6.18-8.69-12.252L58.973,149.6   c1.183-2.529,3.516-4.331,6.262-4.835l239.934-44.069l-70.262,158.29C233.649,261.819,230.968,263.761,227.882,264.073z    M551.689,301.262l-185.286-16.281c-3.214-0.282-6.003-2.332-7.23-5.315l-36.225-87.974c-4.571-11.102-8.312-10.362-8.312,1.644   v274.833l0.004,43.135c5.419,0.013,10.84-0.543,16.174-1.665l218.13-45.882c3.915-0.824,6.752-4.229,6.855-8.228l3.768-145.441   C559.686,305.527,556.234,301.661,551.689,301.262z M475.437,378.948l-10.233,0.283l-0.207,64.406   c-0.009,2.837-2.891,5.55-6.475,6.065l-16.771,2.412c-3.831,0.551-6.966-1.412-6.959-4.392l0.156-67.651l-11.705,0.324   c-5.691,0.157-9.292-4.406-6.395-8.183l27.837-36.274c2.637-3.438,9.109-3.121,11.651,0.501l24.435,34.825   C483.087,374.567,480.158,378.816,475.437,378.948z M602.481,286.138l-218.364-22.065c-3.086-0.312-5.768-2.254-7.025-5.088   l-70.261-158.29l239.934,44.069c2.746,0.504,5.079,2.306,6.263,4.835l58.145,124.286   C614.014,279.958,609.152,286.812,602.481,286.138z"
       id="path5"
       style="fill:#2196f3;fill-opacity:1" /></g><g
     id="g7" /><g
     id="g9" /><g
     id="g11" /><g
     id="g13" /><g
     id="g15" /><g
     id="g17" /><g
     id="g19" /><g
     id="g21" /><g
     id="g23" /><g
     id="g25" /><g
     id="g27" /><g
     id="g29" /><g
     id="g31" /><g
     id="g33" /><g
     id="g35" /></svg>