<?xml version="1.0" encoding="UTF-8" standalone="no"?>
<svg width="200px" height="124px" viewBox="0 0 200 124" version="1.1" xmlns="http://www.w3.org/2000/svg" xmlns:xlink="http://www.w3.org/1999/xlink" xmlns:sketch="http://www.bohemiancoding.com/sketch/ns">
    <!-- Generator: Sketch 3.4.2 (15857) - http://www.bohemiancoding.com/sketch -->
    <title>Shipblue</title>
    <desc>Created with Sketch.</desc>
    <defs></defs>
    <g id="Page-1" stroke="none" stroke-width="1" fill="none" fill-rule="evenodd" sketch:type="MSPage">
        <g id="ship" sketch:type="MSLayerGroup" fill="#2196F3">
            <path d="M59.2477124,88.6646078 C49.5189542,88.6646078 41.6284314,96.5551307 41.6284314,106.255131 C41.6284314,115.983562 49.5189542,123.874085 59.2477124,123.874085 C68.9480392,123.874085 76.8382353,115.983235 76.8382353,106.255131 C76.8382353,96.5551307 68.9480392,88.6646078 59.2477124,88.6646078 L59.2477124,88.6646078 Z M59.2477124,115.07866 C54.3833333,115.07866 50.424183,111.11951 50.424183,106.255131 C50.424183,101.419183 54.3833333,97.4597059 59.2477124,97.4597059 C64.0833333,97.4597059 68.0428105,101.418856 68.0428105,106.255131 C68.0428105,111.11951 64.0836601,115.07866 59.2477124,115.07866 L59.2477124,115.07866 Z M44.0810458,88.6721242 L4.6496732,88.6721242 C3.0879085,88.6721242 1.82189542,89.9381373 1.82189542,91.499902 L1.82189542,100.080294 C1.82189542,101.642059 3.0879085,102.908072 4.6496732,102.908072 L36.2555556,102.908072 C37.0810458,97.2463072 39.9385621,92.2446732 44.0810458,88.6721242 L44.0810458,88.6721242 Z M151.30098,88.6646078 C141.600327,88.6646078 133.710458,96.5551307 133.710458,106.255131 C133.710458,115.983562 141.600654,123.874085 151.30098,123.874085 C161.029412,123.874085 168.891176,115.983235 168.891176,106.255131 C168.891503,96.5551307 161.029412,88.6646078 151.30098,88.6646078 L151.30098,88.6646078 Z M151.30098,115.07866 C146.436601,115.07866 142.505556,111.11951 142.505556,106.255131 C142.505556,101.419183 146.436601,97.4597059 151.30098,97.4597059 C156.165033,97.4597059 160.096078,101.418856 160.096078,106.255131 C160.096405,111.11951 156.165033,115.07866 151.30098,115.07866 L151.30098,115.07866 Z M197.172222,88.6646078 L190.3,88.6646078 L190.3,50.2312745 C190.3,45.7348693 188.942484,41.3231046 186.42549,37.5897712 L169.202941,12.0809477 C165.016993,5.85905229 157.97549,2.12604575 150.452941,2.12604575 L123.756209,2.12604575 C120.645098,2.12604575 118.1,4.64303922 118.1,7.7822549 L118.1,88.6646078 L74.4062092,88.6646078 C78.5352941,92.2561111 81.3915033,97.2338889 82.2117647,102.917876 L128.337255,102.917876 C129.949346,91.6907516 139.621242,83.0083987 151.301307,83.0083987 C162.980719,83.0083987 172.652941,91.6904248 174.293137,102.917876 L197.172222,102.917876 C198.756209,102.917876 200,101.645 200,100.089771 L200,91.4927124 C200,89.9371569 198.755556,88.6646078 197.172222,88.6646078 L197.172222,88.6646078 Z M169.004248,42.6802941 L133.766993,42.6802941 C132.211438,42.6802941 130.938889,41.4358497 130.938889,39.8521895 L130.938889,20.3106863 C130.938889,18.7551307 132.212092,17.4825817 133.766993,17.4825817 L155.232026,17.4825817 C156.165033,17.4825817 157.042157,17.9348693 157.551307,18.6701634 L171.324183,38.240098 C172.652614,40.1067647 171.295098,42.6802941 169.004248,42.6802941 L169.004248,42.6802941 Z M104.637908,83.0083987 L5.65588235,83.0083987 C2.53235294,83.0083987 0,80.4763725 0,77.3525163 L0,51.899902 C0,48.7760458 2.53235294,46.2436928 5.65588235,46.2436928 L104.637908,46.2436928 C107.761765,46.2436928 110.294118,48.7760458 110.294118,51.899902 L110.294118,77.3525163 C110.294118,80.4763725 107.761765,83.0083987 104.637908,83.0083987 L104.637908,83.0083987 Z M45.2490196,37.7597059 L5.65588235,37.7597059 C2.53235294,37.7597059 0,35.2270261 0,32.1034967 L0,6.65120915 C0,3.52735294 2.53235294,0.995 5.65588235,0.995 L45.2486928,0.995 C48.372549,0.995 50.904902,3.52735294 50.904902,6.65120915 L50.904902,32.1034967 C50.9052288,35.2270261 48.3728758,37.7597059 45.2490196,37.7597059 L45.2490196,37.7597059 Z M104.637908,37.7597059 L65.0454248,37.7597059 C61.9215686,37.7597059 59.3892157,35.2273529 59.3892157,32.1038235 L59.3892157,6.65120915 C59.3892157,3.52735294 61.9215686,0.995326797 65.0454248,0.995326797 L104.638235,0.995326797 C107.762092,0.995326797 110.294444,3.52767974 110.294444,6.65120915 L110.294444,32.1038235 C110.294118,35.2270261 107.761765,37.7597059 104.637908,37.7597059 L104.637908,37.7597059 Z" id="Ship" sketch:type="MSShapeGroup"></path>
        </g>
    </g>
</svg>