<?xml version="1.0" encoding="UTF-8" standalone="no"?>
<svg width="300px" height="186px" viewBox="0 0 300 186" version="1.1" xmlns="http://www.w3.org/2000/svg" xmlns:xlink="http://www.w3.org/1999/xlink" xmlns:sketch="http://www.bohemiancoding.com/sketch/ns">
    <!-- Generator: Sketch 3.4.2 (15857) - http://www.bohemiancoding.com/sketch -->
    <title>Shipblack</title>
    <desc>Created with Sketch.</desc>
    <defs></defs>
    <g id="Page-1" stroke="none" stroke-width="1" fill="none" fill-rule="evenodd" sketch:type="MSPage">
        <g id="ship" sketch:type="MSLayerGroup" fill="#000000">
            <path d="M88.872234,132.500396 C74.2789874,132.500396 62.4431145,144.336269 62.4431145,158.886378 C62.4431145,173.479134 74.2789874,185.315007 88.872234,185.315007 C103.422833,185.315007 115.258216,173.478644 115.258216,158.886378 C115.258216,144.336269 103.422833,132.500396 88.872234,132.500396 L88.872234,132.500396 Z M88.872234,172.121771 C81.5756107,172.121771 75.6368407,166.183001 75.6368407,158.886378 C75.6368407,151.632402 81.5756107,145.693142 88.872234,145.693142 C96.1257196,145.693142 102.06498,151.631912 102.06498,158.886378 C102.06498,166.183001 96.1262098,172.121771 88.872234,172.121771 L88.872234,172.121771 Z M66.1220636,132.511671 L6.97456202,132.511671 C4.63189742,132.511671 2.7328636,134.410705 2.7328636,136.753369 L2.7328636,149.624054 C2.7328636,151.966718 4.63189742,153.865752 6.97456202,153.865752 L54.3837405,153.865752 C55.621985,145.373042 59.9082916,137.870534 66.1220636,132.511671 L66.1220636,132.511671 Z M226.95317,132.500396 C212.40208,132.500396 200.567188,144.336269 200.567188,158.886378 C200.567188,173.479134 212.40257,185.315007 226.95317,185.315007 C241.545926,185.315007 253.338661,173.478644 253.338661,158.886378 C253.339151,144.336269 241.545926,132.500396 226.95317,132.500396 L226.95317,132.500396 Z M226.95317,172.121771 C219.656546,172.121771 213.759934,166.183001 213.759934,158.886378 C213.759934,151.632402 219.656546,145.693142 226.95317,145.693142 C234.249303,145.693142 240.145915,151.631912 240.145915,158.886378 C240.146406,166.183001 234.249303,172.121771 226.95317,172.121771 L226.95317,172.121771 Z M295.760547,132.500396 L285.452137,132.500396 L285.452137,74.8499647 C285.452137,68.1053063 283.415847,61.4876097 279.640329,55.8875678 L253.806312,17.6240461 C247.527343,8.29113305 236.965009,2.69158133 225.681101,2.69158133 L185.635703,2.69158133 C180.969002,2.69158133 177.151326,6.46709979 177.151326,11.1759586 L177.151326,132.500396 L111.610149,132.500396 C117.803823,137.887691 122.088169,145.354414 123.31857,153.880458 L192.507324,153.880458 C194.925479,137.039646 209.433431,124.016019 226.95366,124.016019 C244.472909,124.016019 258.981351,137.039156 261.441663,153.880458 L295.760547,153.880458 C298.136546,153.880458 300.002246,151.97113 300.002246,149.63827 L300.002246,136.742585 C300.002246,134.409234 298.135565,132.500396 295.760547,132.500396 L295.760547,132.500396 Z M253.50827,63.5234093 L200.651992,63.5234093 C198.318642,63.5234093 196.409804,61.6567286 196.409804,59.2812207 L196.409804,29.9687463 C196.409804,27.6353955 198.319622,25.7265577 200.651992,25.7265577 L232.849782,25.7265577 C234.249303,25.7265577 235.564999,26.4049941 236.32873,27.5079436 L256.988198,56.8630653 C258.98086,59.6630863 256.944571,63.5234093 253.50827,63.5234093 L253.50827,63.5234093 Z M156.958038,124.016019 L8.48388704,124.016019 C3.79855785,124.016019 0,120.217951 0,115.532132 L0,77.3529246 C0,72.6671052 3.79855785,68.8685473 8.48388704,68.8685473 L156.958038,68.8685473 C161.643857,68.8685473 165.442415,72.6671052 165.442415,77.3529246 L165.442415,115.532132 C165.442415,120.217951 161.643857,124.016019 156.958038,124.016019 L156.958038,124.016019 Z M67.8740375,56.1424717 L8.48388704,56.1424717 C3.79855785,56.1424717 0,52.3434236 0,47.6580944 L0,9.47937724 C0,4.79355785 3.79855785,0.995 8.48388704,0.995 L67.8735473,0.995 C72.5593667,0.995 76.3579246,4.79355785 76.3579246,9.47937724 L76.3579246,47.6580944 C76.3584148,52.3434236 72.5598569,56.1424717 67.8740375,56.1424717 L67.8740375,56.1424717 Z M156.958038,56.1424717 L97.5688677,56.1424717 C92.8830483,56.1424717 89.0844904,52.3439138 89.0844904,47.6585846 L89.0844904,9.47937724 C89.0844904,4.79355785 92.8830483,0.9954902 97.5688677,0.9954902 L156.958528,0.9954902 C161.644347,0.9954902 165.442905,4.79404805 165.442905,9.47937724 L165.442905,47.6585846 C165.442415,52.3434236 161.643857,56.1424717 156.958038,56.1424717 L156.958038,56.1424717 Z" id="Ship" sketch:type="MSShapeGroup"></path>
        </g>
    </g>
</svg>