<?xml version="1.0" encoding="UTF-8" standalone="no"?>
<svg width="105px" height="100px" viewBox="0 0 105 100" version="1.1" xmlns="http://www.w3.org/2000/svg" xmlns:xlink="http://www.w3.org/1999/xlink" xmlns:sketch="http://www.bohemiancoding.com/sketch/ns">
    <!-- Generator: Sketch 3.4.2 (15857) - http://www.bohemiancoding.com/sketch -->
    <title>storage_blue</title>
    <desc>Created with Sketch.</desc>
    <defs></defs>
    <g id="Page-1" stroke="none" stroke-width="1" fill="none" fill-rule="evenodd" sketch:type="MSPage">
        <g id="storage" sketch:type="MSLayerGroup" fill="#2196F3">
            <g id="Group" sketch:type="MSShapeGroup">
                <path d="M103.374943,29.8426018 L53.0661615,0.330310153 C52.5026357,-0.000221833548 51.8147808,-0.000221833548 51.251255,0.330310153 L0.942261109,29.8426018 C0.360213691,30.1842254 -0.000212892252,30.8264335 2.89130401e-15,31.5225472 L2.89130401e-15,98.718591 C2.89130401e-15,99.0391405 0.249296827,99.2989076 0.55671324,99.2989076 L11.6573411,99.2989076 C11.9647575,99.2989076 12.2140543,99.0391405 12.2140543,98.718591 L12.2140543,41.6907316 L92.1029365,41.6907316 L92.1029365,98.7188128 C92.1029365,99.0393623 92.3522333,99.2991294 92.6596497,99.2991294 L103.760278,99.2991294 C104.067694,99.2991294 104.317204,99.0393623 104.317204,98.7188128 L104.317204,31.5221035 C104.317204,30.8262117 103.957203,30.1842254 103.374943,29.8426018 L103.374943,29.8426018 Z" id="Storage"></path>
                <g transform="translate(18.947410, 55.236554)" id="Shape">
                    <g transform="translate(0.000000, 25.954525)">
                        <g transform="translate(24.482609, 0.000000)">
                            <path d="M40.0135246,0.0996032632 L26.4305731,0.0996032632 C25.4089032,0.0996032632 24.5809652,0.962535766 24.5809652,2.02689313 L24.5809652,16.1807608 C24.5809652,17.24534 25.4091161,18.1080507 26.4305731,18.1080507 L40.0135246,18.1080507 C41.0351945,18.1080507 41.8633454,17.24534 41.8633454,16.1807608 L41.8633454,2.02689313 C41.8633454,0.962313933 41.0351945,0.0996032632 40.0135246,0.0996032632 L40.0135246,0.0996032632 Z"></path>
                            <path d="M15.5198452,0.0996032632 L1.93689371,0.0996032632 C0.915223793,0.0996032632 0.0870729312,0.962535766 0.0870729312,2.02689313 L0.0870729312,16.1807608 C0.0870729312,17.24534 0.915223793,18.1080507 1.93689371,18.1080507 L15.5198452,18.1080507 C16.5415151,18.1080507 17.3694531,17.24534 17.3694531,16.1807608 L17.3694531,2.02689313 C17.369666,0.962313933 16.5415151,0.0996032632 15.5198452,0.0996032632 L15.5198452,0.0996032632 Z"></path>
                        </g>
                        <path d="M15.5089877,0.0996032632 L1.92603621,0.0996032632 C0.90457918,0.0996032632 0.0764283186,0.962535766 0.0764283186,2.02689313 L0.0764283186,16.1807608 C0.0764283186,17.24534 0.904792072,18.1080507 1.92603621,18.1080507 L15.5089877,18.1080507 C16.5304447,18.1080507 17.3585956,17.24534 17.3585956,16.1807608 L17.3585956,2.02689313 C17.3585956,0.962313933 16.5302318,0.0996032632 15.5089877,0.0996032632 L15.5089877,0.0996032632 Z"></path>
                    </g>
                    <g>
                        <g transform="translate(24.482609, 0.000000)">
                            <path d="M40.0135246,0.0144191806 L26.4305731,0.0144191806 C25.4089032,0.0144191806 24.5809652,0.877351684 24.5809652,1.94170905 L24.5809652,16.0955768 C24.5809652,17.1599341 25.4091161,18.0228666 26.4305731,18.0228666 L40.0135246,18.0228666 C41.0351945,18.0228666 41.8633454,17.1599341 41.8633454,16.0955768 L41.8633454,1.94170905 C41.8633454,0.87712985 41.0351945,0.0144191806 40.0135246,0.0144191806 L40.0135246,0.0144191806 Z"></path>
                            <path d="M15.5198452,0.0144191806 L1.93689371,0.0144191806 C0.915223793,0.0144191806 0.0870729312,0.877351684 0.0870729312,1.94170905 L0.0870729312,16.0955768 C0.0870729312,17.1599341 0.915223793,18.0228666 1.93689371,18.0228666 L15.5198452,18.0228666 C16.5415151,18.0228666 17.3694531,17.1599341 17.3694531,16.0955768 L17.3694531,1.94170905 C17.369666,0.87712985 16.5415151,0.0144191806 15.5198452,0.0144191806 L15.5198452,0.0144191806 Z"></path>
                        </g>
                        <path d="M15.5089877,0.0144191806 L1.92603621,0.0144191806 C0.90457918,0.0144191806 0.0764283186,0.877351684 0.0764283186,1.94170905 L0.0764283186,16.0955768 C0.0764283186,17.1599341 0.904792072,18.0228666 1.92603621,18.0228666 L15.5089877,18.0228666 C16.5304447,18.0228666 17.3585956,17.1599341 17.3585956,16.0955768 L17.3585956,1.94170905 C17.3585956,0.87712985 16.5302318,0.0144191806 15.5089877,0.0144191806 L15.5089877,0.0144191806 Z"></path>
                    </g>
                </g>
            </g>
        </g>
    </g>
</svg>